# xmcd
#
# Track frame offsets:
#	150
#	13147
#	24329
#	39644
#	48351
#	57538
#	69185
#	84140
#	96162
#	108012
#	127384
#	136661
#	147018
#	160293
#	172473
#
# Disc length: 2308 seconds
#
# Revision: 1
# Processed by: cddbd v1.5.2PL0 Copyright (c) Steve Scherf et al.
# Submitted via: EasyCDDAExtractor 2011.0.0.0
#
DISCID=c909020f
DTITLE=Brett Baker - Merry Christmas Baby
DYEAR=1900
DGENRE=
TTITLE0=Honky Tonk Christmas
TTITLE1=Baby It's Cold Outside
TTITLE2=Grandma Got Run Over By A Reindeer
TTITLE3=Santa Bring My Baby Back To Me
TTITLE4=Let It Snow, Let It Snow, Let It Snow
TTITLE5=Christmas Rock
TTITLE6=Merry Christmas Baby
TTITLE7=Santa Clause Is Back In Town
TTITLE8=Santa Looked A Lot Like Daddy
TTITLE9=I'll Be Home On Christmas Day
TTITLE10=Here Comes Santa Clause
TTITLE11=White Christmas
TTITLE12=I Only Want You For Christmas
TTITLE13=Winter Wonderland
TTITLE14=Christmas Greeting
EXTD=
EXTT0=
EXTT1=
EXTT2=
EXTT3=
EXTT4=
EXTT5=
EXTT6=
EXTT7=
EXTT8=
EXTT9=
EXTT10=
EXTT11=
EXTT12=
EXTT13=
EXTT14=
PLAYORDER=
